<svg width="137" height="25" viewBox="0 0 137 25" fill="none" xmlns="http://www.w3.org/2000/svg">
<g clip-path="url(#clip0_1323_1056)">
<path d="M97.7687 0H91.2402V4.16526H97.7687C102.604 4.16526 106.416 7.62354 106.416 12.4587C106.416 17.2939 102.604 20.7546 97.7687 20.7546H91.2402V24.9174H97.7687C104.932 24.9174 110.863 19.5879 110.863 12.4587C110.863 5.32956 104.935 0 97.7687 0Z" fill="white"/>
<path d="M56.4421 0H49.9111V4.16526H56.4421C61.2772 4.16526 65.089 7.62354 65.089 12.4587C65.089 17.2939 61.2772 20.7546 56.4421 20.7546H49.9111V24.9174H56.4421C63.6058 24.9174 69.5361 19.5879 69.5361 12.4587C69.5361 5.32956 63.6083 0 56.4421 0Z" fill="white"/>
<path d="M123.919 0L110.979 24.9174H115.779L123.825 8.42199L131.8 24.9174H136.635L123.919 0Z" fill="white"/>
<path d="M45.6947 10.3809H26.7051V14.5436H45.6947V10.3809Z" fill="white"/>
<path d="M45.6947 0H26.7051V4.16279H45.6947V0Z" fill="white"/>
<path d="M22.485 0H0V4.16279H22.485V0Z" fill="white"/>
<path d="M45.6947 20.7559H26.7051V24.9162H45.6947V20.7559Z" fill="white"/>
<path d="M68.0039 24.9187H87.0282V20.7559H71.5092C70.5797 22.3305 69.3907 23.7321 68.0039 24.9187Z" fill="white"/>
<path d="M73.6299 14.5392H87.0156V10.3789H73.6299C73.7288 11.1032 73.7782 11.7879 73.7782 12.4554C73.7782 13.1228 73.7288 13.8149 73.6299 14.5392Z" fill="white"/>
<path d="M87.028 0H68.0137C69.4004 1.18654 70.587 2.58815 71.514 4.16032H87.028V0Z" fill="white"/>
<path d="M22.5023 20.7539H0V24.9167H22.5023V20.7539Z" fill="white"/>
<path d="M0 20.7539V20.7692L0.0153072 20.7539H0Z" fill="white"/>
<path d="M5.89564 20.7539L22.4875 4.16211H22.485H16.5721L0 20.7539H5.89564Z" fill="white" fill-opacity="0.5"/>
</g>
<defs>
<clipPath id="clip0_1323_1056">
<rect width="136.635" height="24.9174" fill="white"/>
</clipPath>
</defs>
</svg>
